<svg width="354" height="317" viewBox="0 0 354 317" fill="none" xmlns="http://www.w3.org/2000/svg">
<path d="M0 14.8594C0 6.6248 6.63228 0 14.8762 0H43.0789C56.7153 0 68.8022 7.925 74.4427 19.8125H329.197C345.499 19.8125 357.4 35.291 353.123 51.0172L327.709 145.312C322.441 164.753 304.775 178.312 284.63 178.312H105.807L109.154 195.958C110.517 202.954 116.654 208.031 123.782 208.031H302.482C310.726 208.031 317.358 214.656 317.358 222.891C317.358 231.125 310.726 237.75 302.482 237.75H123.782C102.336 237.75 83.9263 222.519 79.9593 201.53L47.9756 33.7432C47.5417 31.3904 45.4962 29.7188 43.0789 29.7188H14.8762C6.63228 29.7188 0 23.0939 0 14.8594ZM79.3395 287.281C79.3395 283.379 80.109 279.514 81.6042 275.908C83.0994 272.303 85.291 269.027 88.0537 266.267C90.8165 263.507 94.0963 261.318 97.7061 259.825C101.316 258.331 105.185 257.562 109.092 257.562C112.999 257.562 116.868 258.331 120.477 259.825C124.087 261.318 127.367 263.507 130.13 266.267C132.893 269.027 135.084 272.303 136.579 275.908C138.075 279.514 138.844 283.379 138.844 287.281C138.844 291.184 138.075 295.048 136.579 298.654C135.084 302.26 132.893 305.536 130.13 308.296C127.367 311.055 124.087 313.244 120.477 314.738C116.868 316.231 112.999 317 109.092 317C105.185 317 101.316 316.231 97.7061 314.738C94.0963 313.244 90.8165 311.055 88.0537 308.296C85.291 305.536 83.0994 302.26 81.6042 298.654C80.109 295.048 79.3395 291.184 79.3395 287.281ZM287.606 257.562C295.496 257.562 303.064 260.694 308.644 266.267C314.223 271.84 317.358 279.399 317.358 287.281C317.358 295.163 314.223 302.722 308.644 308.296C303.064 313.869 295.496 317 287.606 317C279.715 317 272.147 313.869 266.568 308.296C260.988 302.722 257.853 295.163 257.853 287.281C257.853 279.399 260.988 271.84 266.568 266.267C272.147 260.694 279.715 257.562 287.606 257.562Z" fill="#A0887F" fill-opacity="0.65"/>
</svg>
