<svg width="333" height="333" viewBox="0 0 333 333" fill="none" xmlns="http://www.w3.org/2000/svg">
<g clip-path="url(#clip0_363_499)">
<path d="M166.5 333C210.659 333 253.008 315.458 284.233 284.233C315.458 253.008 333 210.659 333 166.5C333 122.341 315.458 79.9915 284.233 48.7667C253.008 17.5419 210.659 0 166.5 0C122.341 0 79.9915 17.5419 48.7667 48.7667C17.5419 79.9915 0 122.341 0 166.5C0 210.659 17.5419 253.008 48.7667 284.233C79.9915 315.458 122.341 333 166.5 333ZM103.607 252.807C101.916 258.27 96.0627 261.392 90.5994 259.636C85.1361 257.88 82.0143 252.091 83.7703 246.628C94.4367 212.092 127.672 187.312 166.5 187.312C205.328 187.312 238.563 212.092 249.295 246.693C250.986 252.156 247.929 258.01 242.466 259.701C237.002 261.392 231.149 258.335 229.458 252.872C221.458 227.246 196.483 208.125 166.5 208.125C136.517 208.125 111.542 227.246 103.607 252.807ZM93.9164 135.281C93.9164 129.761 96.1091 124.468 100.012 120.565C103.915 116.661 109.209 114.469 114.729 114.469C120.249 114.469 125.542 116.661 129.446 120.565C133.349 124.468 135.541 129.761 135.541 135.281C135.541 140.801 133.349 146.095 129.446 149.998C125.542 153.901 120.249 156.094 114.729 156.094C109.209 156.094 103.915 153.901 100.012 149.998C96.1091 146.095 93.9164 140.801 93.9164 135.281ZM218.791 114.469C224.311 114.469 229.605 116.661 233.508 120.565C237.411 124.468 239.604 129.761 239.604 135.281C239.604 140.801 237.411 146.095 233.508 149.998C229.605 153.901 224.311 156.094 218.791 156.094C213.272 156.094 207.978 153.901 204.075 149.998C200.172 146.095 197.979 140.801 197.979 135.281C197.979 129.761 200.172 124.468 204.075 120.565C207.978 116.661 213.272 114.469 218.791 114.469Z" fill="#A0887F"/>
</g>
<defs>
<clipPath id="clip0_363_499">
<rect width="333" height="333" fill="white"/>
</clipPath>
</defs>
</svg>
