<svg width="256" height="256" viewBox="0 0 256 256" fill="none" xmlns="http://www.w3.org/2000/svg">
<path d="M128 256C161.948 256 194.505 242.514 218.51 218.51C242.514 194.505 256 161.948 256 128C256 94.0523 242.514 61.495 218.51 37.4903C194.505 13.4857 161.948 0 128 0C94.0523 0 61.495 13.4857 37.4903 37.4903C13.4857 61.495 0 94.0523 0 128C0 161.948 13.4857 194.505 37.4903 218.51C61.495 242.514 94.0523 256 128 256ZM184.5 104.5L120.5 168.5C115.8 173.2 108.2 173.2 103.55 168.5L71.55 136.5C66.85 131.8 66.85 124.2 71.55 119.55C76.25 114.9 83.85 114.85 88.5 119.55L112 143.05L167.5 87.5C172.2 82.8 179.8 82.8 184.45 87.5C189.1 92.2 189.15 99.8 184.45 104.45L184.5 104.5Z" fill="#A0887F"/>
</svg>
